<svg width="61" height="61" viewBox="0 0 61 61" fill="none" xmlns="http://www.w3.org/2000/svg">
<path d="M61 0L30.5 30.5L0 61V33.7973L33.7973 0H61Z" fill="#D22856"/>
<path d="M21.953 32.2809L21.0201 33.2138L15.9979 32.0102L17.1725 37.0615L16.2976 37.9364L14.9683 31.899L9.39499 30.7051L10.3086 29.7915L14.8909 30.8453L13.8469 26.2532L14.7169 25.3832L15.9012 30.9371L21.953 32.2809ZM15.9012 24.1989L16.6698 23.4303L20.7543 27.5148C20.9089 27.6695 21.0765 27.8403 21.257 28.0272C21.4342 28.2109 21.6066 28.393 21.7742 28.5734C21.9418 28.7539 22.0916 28.9198 22.2237 29.0713C22.3591 29.2195 22.4622 29.3355 22.5331 29.4193L22.5718 29.3807L20.5803 19.5198L21.4842 18.6159L28.5511 25.6828L27.7825 26.4514L23.7464 22.4152C23.5756 22.2444 23.3983 22.0608 23.2146 21.8642C23.0277 21.6644 22.8473 21.471 22.6733 21.2841C22.5025 21.094 22.351 20.9232 22.2189 20.7718C22.0835 20.6171 21.9788 20.4995 21.9047 20.4189L21.8612 20.4624L23.8769 30.3571L22.9681 31.2658L15.9012 24.1989ZM32.6501 21.5838L31.8235 22.4104L25.4817 16.0685L23.2581 18.2921L22.5331 17.567L27.797 12.3031L28.5221 13.0281L26.3082 15.242L32.6501 21.5838Z" fill="white"/>
</svg>
